<svg xmlns="http://www.w3.org/2000/svg" xmlns:xlink="http://www.w3.org/1999/xlink" viewBox="0 0 589 630"><defs><style>.cls-1{fill:none;}.cls-2{isolation:isolate;}.cls-3{fill:#eaeaea;}.cls-4{fill:url(#linear-gradient);}.cls-5{clip-path:url(#clip-path);}.cls-6{opacity:0.5;mix-blend-mode:soft-light;}.cls-7{fill:#fcfdfe;}.cls-8{clip-path:url(#clip-path-2);}.cls-9{fill:url(#linear-gradient-2);}.cls-10{fill:#beb8f2;}.cls-11{fill:url(#linear-gradient-3);}.cls-12{clip-path:url(#clip-path-3);}.cls-13{clip-path:url(#clip-path-4);}.cls-14{fill:url(#linear-gradient-4);}.cls-15{fill:url(#linear-gradient-5);}.cls-16{clip-path:url(#clip-path-5);}.cls-17{fill:url(#linear-gradient-6);}.cls-18{fill:url(#linear-gradient-7);}.cls-19{fill:url(#linear-gradient-8);}.cls-20{fill:#de8bdf;}.cls-21{fill:#f4f7fa;}.cls-22{fill:#fff;}.cls-23{fill:url(#linear-gradient-9);}.cls-24{fill:url(#linear-gradient-10);}.cls-25{fill:url(#linear-gradient-11);}.cls-26{fill:url(#linear-gradient-12);}.cls-27{fill:url(#linear-gradient-13);}.cls-28{fill:url(#linear-gradient-14);}.cls-29{fill:url(#linear-gradient-15);}.cls-30{fill:url(#linear-gradient-16);}.cls-31,.cls-32,.cls-39,.cls-48,.cls-62{opacity:0.3;}.cls-31,.cls-32,.cls-39,.cls-48,.cls-58,.cls-62,.cls-64{mix-blend-mode:multiply;}.cls-31{fill:url(#linear-gradient-17);}.cls-32{fill:url(#linear-gradient-18);}.cls-33{fill:url(#linear-gradient-19);}.cls-34{fill:url(#linear-gradient-20);}.cls-35{fill:url(#linear-gradient-21);}.cls-36{fill:url(#linear-gradient-22);}.cls-37{fill:url(#linear-gradient-23);}.cls-38{fill:url(#linear-gradient-24);}.cls-39{fill:url(#linear-gradient-25);}.cls-40{fill:url(#linear-gradient-26);}.cls-41{fill:url(#linear-gradient-27);}.cls-42{fill:url(#linear-gradient-28);}.cls-43{fill:url(#linear-gradient-29);}.cls-44{fill:url(#linear-gradient-30);}.cls-45{fill:url(#linear-gradient-31);}.cls-46{fill:url(#linear-gradient-32);}.cls-47{fill:url(#linear-gradient-33);}.cls-48{fill:url(#linear-gradient-34);}.cls-49{fill:url(#linear-gradient-35);}.cls-50{fill:url(#linear-gradient-36);}.cls-51{fill:url(#linear-gradient-37);}.cls-52{fill:url(#linear-gradient-38);}.cls-53{fill:url(#linear-gradient-39);}.cls-54{fill:url(#linear-gradient-40);}.cls-55{fill:url(#linear-gradient-41);}.cls-56{fill:url(#linear-gradient-42);}.cls-57{fill:url(#linear-gradient-43);}.cls-58{opacity:0.25;fill:url(#linear-gradient-44);}.cls-59{fill:url(#linear-gradient-45);}.cls-60{fill:url(#linear-gradient-46);}.cls-61{fill:url(#linear-gradient-47);}.cls-62{fill:url(#linear-gradient-48);}.cls-63{fill:url(#linear-gradient-49);}.cls-64{opacity:0.4;fill:url(#linear-gradient-50);}.cls-65{fill:url(#linear-gradient-51);}.cls-66{fill:url(#linear-gradient-52);}.cls-67{fill:url(#linear-gradient-53);}.cls-68{fill:url(#linear-gradient-54);}.cls-69{fill:url(#linear-gradient-55);}.cls-70{fill:url(#linear-gradient-56);}.cls-71{fill:url(#linear-gradient-57);}.cls-72{fill:url(#linear-gradient-58);}.cls-73{fill:url(#linear-gradient-59);}</style><linearGradient id="linear-gradient" x1="4403.14" y1="-508.74" x2="4512.19" y2="-329.22" gradientTransform="matrix(0.97, 0.24, -0.24, 0.97, -4305.41, -419.06)" gradientUnits="userSpaceOnUse"><stop offset="0" stop-color="#ff9085"/><stop offset="1" stop-color="#fb6fbb"/></linearGradient><clipPath id="clip-path"><path class="cls-1" d="M116.8,318.19l46.81,11.41c4.34-6,10.8-17.33,1.74-22.73-12.59-7.51-6.88-31.55-1-39.08,7.27-9.33,23.74-31.38,4.46-43.29-16.06-9.92-28.44-13-24-35.81s-4.28-39.88-25-43.68C98,141,87.64,108,67.67,113.16c-34.8,8.91-19.56,65.4,14,89.13s8.87,31.75,3.23,49.88c-7.7,24.75,27.58,27.94,34.06,40.06C124.07,301.73,120.08,312.07,116.8,318.19Z"/></clipPath><clipPath id="clip-path-2"><path class="cls-1" d="M183.83,354.34l-51.77-.17s-9.65-26.59,3.1-45.29c26-38.14-9.22-58.26-22.71-68.9-20.35-16-31.29-39-1.25-48.94s0-56.5-36.56-77.66C38.83,92.67,55,17.06,136.61,54.76,185.36,77.28,177.54,129,179.8,156.09s42.49,29.44,28.61,62.45c-11.86,28.2-34.29,48.71-17.29,68.18S209.8,328,183.83,354.34Z"/></clipPath><linearGradient id="linear-gradient-2" x1="430.22" y1="77.85" x2="327.17" y2="370.74" gradientTransform="matrix(-1, 0, 0, 1, 523.73, -23.64)" gradientUnits="userSpaceOnUse"><stop offset="0" stop-color="#ffc444"/><stop offset="1" stop-color="#f36f56"/></linearGradient><linearGradient id="linear-gradient-3" x1="-2645.95" y1="-69.05" x2="-2517.55" y2="268.34" gradientTransform="matrix(-1, -0.07, -0.07, 1, -2150.93, -28.27)" gradientUnits="userSpaceOnUse"><stop offset="0" stop-color="#aa80f9"/><stop offset="1" stop-color="#6165d7"/></linearGradient><clipPath id="clip-path-3"><path class="cls-1" d="M406.66,367.84l-41.4-10.66s-10.66-31,4.64-39.28,9.45-38.06,8.16-54.3c-3.48-44.08,44.15-40.07,44.21-97.07,0-15.16-5-44.07,7.75-56.15,14.56-13.75,25.19-.26,34.55-11.76,14.64-18,38.38-24.43,52.54-5.93,14,18.26-3,54.62-45.21,83.83-27.9,24.39-28.33,31.7-26.14,49.48,1.54,12.45,13.42,44.9-3.48,57.85s-29.83,27-23.32,41C428.87,346.28,406.66,367.84,406.66,367.84Z"/></clipPath><clipPath id="clip-path-4"><path class="cls-1" d="M351.73,431.47,401.13,447s17.24-22.42,10.74-44.1c-13.26-44.22,26.4-52.75,42.48-58.81,24.24-9.13,41.62-27.76,16-46.27s17-53.87,58.32-63c40.4-8.91,47.86-85.87-41.35-74.6-53.27,6.73-61.46,58.41-71.79,83.53s-49.41,15.21-46.16,50.87c2.78,30.47,18,56.8-4.13,70.22S335,398.47,351.73,431.47Z"/></clipPath><linearGradient id="linear-gradient-4" x1="4469.71" y1="-454.16" x2="4366.65" y2="-161.26" gradientTransform="matrix(0.95, 0.3, -0.3, 0.95, -3871.57, -732.15)" gradientUnits="userSpaceOnUse"><stop offset="0" stop-color="#e38ddd"/><stop offset="1" stop-color="#9571f6"/></linearGradient><linearGradient id="linear-gradient-5" x1="575.59" y1="108.22" x2="684.64" y2="287.74" gradientTransform="matrix(-1, 0.02, 0.02, 1, 1036.86, 158.14)" xlink:href="#linear-gradient-2"/><clipPath id="clip-path-5"><path class="cls-1" d="M399.94,458.21l-48.16,1.09c-3-6.75-6.83-19.25,3.18-22.58,13.91-4.63,13.5-29.33,9.38-38-5.09-10.66-16.44-35.74,5-43.24,17.81-6.23,30.58-6.62,31.13-29.81s12.75-38,33.79-37.29c22.14.77,39.36-29.2,57.77-19.91,32.07,16.18,5,68.08-32.87,84s-15.48,29.11-13.87,48c2.21,25.82-32.93,21.36-41.86,31.81C396.38,440.58,398.06,451.53,399.94,458.21Z"/></clipPath><linearGradient id="linear-gradient-6" x1="479.32" y1="476.1" x2="236.67" y2="269.11" gradientUnits="userSpaceOnUse"><stop offset="0" stop-color="#444b8c"/><stop offset="1" stop-color="#26264f"/></linearGradient><linearGradient id="linear-gradient-7" x1="-4899.13" y1="-887.28" x2="-4004.96" y2="-854.02" gradientTransform="translate(1163.97 -4350.68) rotate(-90)" xlink:href="#linear-gradient-6"/><linearGradient id="linear-gradient-8" x1="153.17" y1="308.01" x2="419.7" y2="308.01" gradientTransform="matrix(1, 0, 0, 1, 0, 0)" xlink:href="#linear-gradient"/><linearGradient id="linear-gradient-9" x1="236.92" y1="55.56" x2="470.49" y2="533.18" gradientTransform="matrix(1, 0, 0, 1, 0, 0)" xlink:href="#linear-gradient-3"/><linearGradient id="linear-gradient-10" x1="204.87" y1="71.24" x2="438.45" y2="548.85" gradientTransform="matrix(1, 0, 0, 1, 0, 0)" xlink:href="#linear-gradient-3"/><linearGradient id="linear-gradient-11" x1="146.58" y1="99.75" x2="380.15" y2="577.36" gradientTransform="matrix(1, 0, 0, 1, 0, 0)" xlink:href="#linear-gradient-3"/><linearGradient id="linear-gradient-12" x1="73.5" y1="135.48" x2="307.07" y2="613.1" gradientTransform="matrix(1, 0, 0, 1, 0, 0)" xlink:href="#linear-gradient-3"/><linearGradient id="linear-gradient-13" x1="98.77" y1="123.12" x2="332.35" y2="600.74" gradientTransform="matrix(1, 0, 0, 1, 0, 0)" xlink:href="#linear-gradient-3"/><linearGradient id="linear-gradient-14" x1="123.85" y1="110.86" x2="357.43" y2="588.47" gradientTransform="matrix(1, 0, 0, 1, 0, 0)" xlink:href="#linear-gradient-3"/><linearGradient id="linear-gradient-15" x1="148.72" y1="98.7" x2="382.3" y2="576.31" gradientTransform="matrix(1, 0, 0, 1, 0, 0)" xlink:href="#linear-gradient-3"/><linearGradient id="linear-gradient-16" x1="173.39" y1="86.63" x2="406.97" y2="564.25" gradientTransform="matrix(1, 0, 0, 1, 0, 0)" xlink:href="#linear-gradient-3"/><linearGradient id="linear-gradient-17" x1="274.84" y1="298.21" x2="427.98" y2="298.21" gradientTransform="matrix(1, 0, 0, 1, 0, 0)" xlink:href="#linear-gradient"/><linearGradient id="linear-gradient-18" x1="142.53" y1="364.11" x2="272.88" y2="368.96" gradientTransform="matrix(1, 0, 0, 1, 0, 0)" xlink:href="#linear-gradient"/><linearGradient id="linear-gradient-19" x1="244.65" y1="438.74" x2="260.44" y2="418.74" gradientTransform="translate(165.75 10.39) rotate(-2.14)" xlink:href="#linear-gradient-3"/><linearGradient id="linear-gradient-20" x1="-92.1" y1="766.19" x2="-66.12" y2="766.19" gradientTransform="matrix(-0.94, 0.35, 0.35, 0.94, 233, -106.8)" xlink:href="#linear-gradient-6"/><linearGradient id="linear-gradient-21" x1="651.03" y1="646.95" x2="661.99" y2="624.27" gradientTransform="matrix(-0.85, 0.53, 0.53, 0.85, 786.09, -310.13)" xlink:href="#linear-gradient-2"/><linearGradient id="linear-gradient-22" x1="36.19" y1="754.61" x2="62.17" y2="754.61" gradientTransform="matrix(-0.93, 0.37, 0.37, 0.93, 308.21, -114.13)" xlink:href="#linear-gradient-6"/><linearGradient id="linear-gradient-23" x1="691.75" y1="648.09" x2="702.71" y2="625.41" gradientTransform="matrix(-0.85, 0.53, 0.53, 0.85, 786.09, -310.13)" xlink:href="#linear-gradient-2"/><linearGradient id="linear-gradient-24" x1="149.02" y1="524.88" x2="212.72" y2="444.2" gradientTransform="translate(165.75 10.39) rotate(-2.14)" xlink:href="#linear-gradient-3"/><linearGradient id="linear-gradient-25" x1="307" y1="481.11" x2="369.7" y2="401.71" gradientTransform="translate(29.12 48.61) rotate(-0.03)" xlink:href="#linear-gradient-3"/><linearGradient id="linear-gradient-26" x1="120.67" y1="945.36" x2="185.05" y2="863.84" gradientTransform="matrix(1, -0.04, 0.03, 0.9, 151.9, -353.37)" xlink:href="#linear-gradient-3"/><linearGradient id="linear-gradient-27" x1="-1071.96" y1="779.58" x2="-984.68" y2="669.05" gradientTransform="translate(1184.28 -496.63) rotate(-20.29)" xlink:href="#linear-gradient-6"/><linearGradient id="linear-gradient-28" x1="-1022.05" y1="679.7" x2="-1120.98" y2="789.28" gradientTransform="translate(1184.28 -496.63) rotate(-20.29)" xlink:href="#linear-gradient-6"/><linearGradient id="linear-gradient-29" x1="-383.92" y1="687.63" x2="-398.14" y2="647.35" gradientTransform="translate(668.96 -213.55) rotate(-11.08)" gradientUnits="userSpaceOnUse"><stop offset="0" stop-color="#311944"/><stop offset="1" stop-color="#893976"/></linearGradient><linearGradient id="linear-gradient-30" x1="-446.03" y1="629.27" x2="-440.82" y2="665.29" xlink:href="#linear-gradient-29"/><linearGradient id="linear-gradient-31" x1="-444.39" y1="636.54" x2="-414.92" y2="636.54" gradientTransform="translate(668.96 -213.55) rotate(-11.08)" xlink:href="#linear-gradient-2"/><linearGradient id="linear-gradient-32" x1="143.12" y1="564.8" x2="115.39" y2="525.44" gradientTransform="matrix(1, -0.08, 0.08, 1, 270.6, -70.83)" xlink:href="#linear-gradient-6"/><linearGradient id="linear-gradient-33" x1="89.94" y1="629.95" x2="150.61" y2="506.72" gradientTransform="matrix(1, -0.08, 0.08, 1, 270.6, -70.83)" xlink:href="#linear-gradient-29"/><linearGradient id="linear-gradient-34" x1="60.3" y1="550.86" x2="193.58" y2="550.86" gradientTransform="matrix(1, -0.08, 0.08, 1, 270.6, -70.83)" xlink:href="#linear-gradient-29"/><linearGradient id="linear-gradient-35" x1="1616.34" y1="-426.29" x2="1619.28" y2="-504.47" gradientTransform="translate(-1296.08 226.28) rotate(21.36)" xlink:href="#linear-gradient-2"/><linearGradient id="linear-gradient-36" x1="-2333.25" y1="-34.13" x2="-2361.09" y2="-104.84" gradientTransform="matrix(-0.98, -0.21, -0.21, 0.98, -1932.01, -57.85)" xlink:href="#linear-gradient-6"/><linearGradient id="linear-gradient-37" x1="68.96" y1="-10.79" x2="68.05" y2="62.95" gradientTransform="matrix(0.99, 0.15, -0.15, 0.99, 315.66, 363.41)" xlink:href="#linear-gradient-2"/><linearGradient id="linear-gradient-38" x1="-2342.56" y1="-41.13" x2="-2362.48" y2="-91.72" gradientTransform="matrix(-0.98, -0.21, -0.21, 0.98, -1932.01, -57.85)" xlink:href="#linear-gradient-6"/><linearGradient id="linear-gradient-39" x1="-2362.06" y1="-71.61" x2="-2361.02" y2="-62.38" gradientTransform="matrix(-0.98, -0.21, -0.21, 0.98, -1932.01, -57.85)" gradientUnits="userSpaceOnUse"><stop offset="0" stop-color="#ffc444"/><stop offset="1" stop-color="#f36f56"/></linearGradient><linearGradient id="linear-gradient-40" x1="1182.4" y1="-371.07" x2="1239.24" y2="-317.05" gradientTransform="matrix(0.95, 0.3, -0.3, 0.95, -1210.57, 199.85)" xlink:href="#linear-gradient-3"/><linearGradient id="linear-gradient-41" x1="659.34" y1="362.14" x2="675.93" y2="362.14" gradientTransform="translate(-558.39 132.22) rotate(6.16)" xlink:href="#linear-gradient-3"/><linearGradient id="linear-gradient-42" x1="691.02" y1="366.97" x2="707.61" y2="366.97" gradientTransform="translate(-558.39 132.22) rotate(6.16)" xlink:href="#linear-gradient-3"/><linearGradient id="linear-gradient-43" x1="139.39" y1="437.91" x2="240.26" y2="437.91" gradientTransform="translate(-104.64 12.23) rotate(-1)" xlink:href="#linear-gradient-6"/><linearGradient id="linear-gradient-44" x1="455.18" y1="280.33" x2="552.6" y2="280.33" gradientTransform="translate(-385.76 114.9) rotate(5.92)" xlink:href="#linear-gradient-6"/><linearGradient id="linear-gradient-45" x1="654.89" y1="104.13" x2="465.52" y2="4.33" gradientTransform="translate(-385.76 114.9) rotate(5.92)" gradientUnits="userSpaceOnUse"><stop offset="0" stop-color="#311944"/><stop offset="1" stop-color="#6b3976"/></linearGradient><linearGradient id="linear-gradient-46" x1="652.73" y1="108.23" x2="463.36" y2="8.43" xlink:href="#linear-gradient-45"/><linearGradient id="linear-gradient-47" x1="1006.9" y1="-125.79" x2="1171.66" y2="-21.39" gradientTransform="translate(-930.5 141.82) rotate(14.31)" xlink:href="#linear-gradient-3"/><linearGradient id="linear-gradient-48" x1="486" y1="95.45" x2="642.17" y2="194.4" gradientTransform="translate(-385.76 114.9) rotate(5.92)" xlink:href="#linear-gradient-3"/><linearGradient id="linear-gradient-49" x1="-644.4" y1="80.28" x2="-641.38" y2="-0.17" gradientTransform="matrix(-1, -0.02, -0.02, 1, -539.28, 154.69)" xlink:href="#linear-gradient-2"/><linearGradient id="linear-gradient-50" x1="499.63" y1="68.27" x2="502.1" y2="2.38" gradientTransform="translate(-385.76 114.9) rotate(5.92)" xlink:href="#linear-gradient-2"/><linearGradient id="linear-gradient-51" x1="-62.59" y1="196.71" x2="-63.4" y2="262.34" gradientTransform="matrix(-0.99, 0.16, 0.17, 1.03, 2.63, -15.22)" xlink:href="#linear-gradient-2"/><linearGradient id="linear-gradient-52" x1="659.06" y1="96.22" x2="469.69" y2="-3.57" xlink:href="#linear-gradient-45"/><linearGradient id="linear-gradient-53" x1="1285.91" y1="-344.71" x2="1379.33" y2="-285.51" gradientTransform="matrix(0.95, 0.3, -0.3, 0.95, -1210.57, 199.85)" xlink:href="#linear-gradient-3"/><linearGradient id="linear-gradient-54" x1="655.08" y1="103.77" x2="465.71" y2="3.97" xlink:href="#linear-gradient-45"/><linearGradient id="linear-gradient-55" x1="1257.96" y1="-349.01" x2="1240.22" y2="-328.08" gradientTransform="matrix(0.95, 0.3, -0.3, 0.95, -1210.57, 199.85)" xlink:href="#linear-gradient-2"/><linearGradient id="linear-gradient-56" x1="1198.57" y1="-315.17" x2="1295.98" y2="-315.17" gradientTransform="matrix(0.95, 0.3, -0.3, 0.95, -1210.57, 199.85)" xlink:href="#linear-gradient"/><linearGradient id="linear-gradient-57" x1="-882.6" y1="-2801.46" x2="-848.61" y2="-2801.46" gradientTransform="matrix(0.62, 0.78, -0.78, 0.62, -1570.17, 2714.22)" xlink:href="#linear-gradient-2"/><linearGradient id="linear-gradient-58" x1="-2666.19" y1="-3430.45" x2="-2632.2" y2="-3430.45" gradientTransform="matrix(-0.79, 0.62, -0.62, -0.79, -4169.31, -802.55)" xlink:href="#linear-gradient-2"/><linearGradient id="linear-gradient-59" x1="1216.64" y1="-313.39" x2="1192.1" y2="-260.56" gradientTransform="matrix(0.95, 0.3, -0.3, 0.95, -1210.57, 199.85)" xlink:href="#linear-gradient-3"/></defs><title>loginImage</title><g class="cls-2"><g id="Layer_1" data-name="Layer 1"><path class="cls-3" d="M571.06,309.19c9.51,48.56,28.8,147-17.36,212.82-82.48,117.65-365.15,112.6-489-39.58C56.05,471.8-16.5,379.72,5.6,262.61,34.07,111.71,204,2.54,338.84,32.12c85.32,18.72,139.93,89.3,162.09,118C510.36,162.3,553.54,219.83,571.06,309.19Z"/><path class="cls-4" d="M121.28,304.61l.49.37a109.16,109.16,0,0,0,36.07,17.78l8.72,1.85c4.11-6.24,6.9-12.91-1.21-17.74-12.59-7.51-6.88-31.55-1-39.08,7.27-9.33,23.74-31.38,4.46-43.29-16.06-9.92-28.44-13-24-35.81s-4.28-39.88-25-43.68C98,141,87.64,108,67.67,113.16c-34.8,8.91-19.56,65.4,14,89.13s8.87,31.75,3.23,49.88c-7.7,24.75,27.58,27.94,34.06,40.06A21.26,21.26,0,0,1,121.28,304.61Z"/><g class="cls-5"><g class="cls-6"><path class="cls-7" d="M140.64,316.2l1,.05C145.1,240,111.5,162.48,54,113.92l-.67.79C110.58,163.07,144,240.27,140.64,316.2Z"/><path class="cls-7" d="M138.94,274.47l1,.25c7.24-29.1,37.8-45.6,38.1-45.76l-.49-.93C177.25,228.2,146.29,244.91,138.94,274.47Z"/><path class="cls-7" d="M140.88,302.16l1-.26c-7.56-29.46-60.27-46.46-60.8-46.63l-.31,1C81.31,256.44,133.47,273.26,140.88,302.16Z"/><path class="cls-7" d="M118.63,202.48l1-.17c-4-23.8,18.25-53.36,18.48-53.66l-.83-.63C137.08,148.32,114.58,178.25,118.63,202.48Z"/><path class="cls-7" d="M94.81,160.26l.74-.73c-19.25-19.61-56.37-20.64-56.74-20.65l0,1C39.16,139.93,75.86,141,94.81,160.26Z"/></g></g><g class="cls-8"><path class="cls-9" d="M183.83,354.34l-51.77-.17s-9.65-26.59,3.1-45.29c26-38.14-9.22-58.26-22.71-68.9-20.35-16-29.27-36.7-4.69-50,27.82-15,3.48-55.44-33.12-76.6C38.83,92.67,55,17.06,136.61,54.76,185.36,77.28,177.54,129,179.8,156.09s42.49,29.44,28.61,62.45c-11.86,28.2-34.29,48.71-17.29,68.18S209.8,328,183.83,354.34Z"/><g class="cls-6"><path class="cls-10" d="M161.41,359.07l-1.08-.2c.13-.66,12.33-67.32,4.51-137-7.21-64.24-33.4-144.31-117.18-160.94l.21-1.07c37.3,7.4,66.48,27.77,86.73,60.54,16.18,26.18,26.72,60.29,31.32,101.37C173.76,291.61,161.53,358.4,161.41,359.07Z"/><path class="cls-10" d="M142.47,134.41l-1.08-.14c4.61-36.07-9-87.39-9.1-87.91l1.05-.28C133.48,46.6,147.11,98.12,142.47,134.41Z"/><path class="cls-10" d="M128.38,113c-36.71-23-71.12-12.17-71.46-12l-.34-1C56.93,99.74,91.8,88.69,129,112Z"/><path class="cls-10" d="M167.47,267.68c-12-51.56-82.08-64.44-82.77-64.5l0-1.1c.68,0,71.64,13.33,83.79,65.35Z"/><path class="cls-10" d="M167.88,245.85l-1.07-.22c7-33.06,43-55.7,43.32-55.93l.57.93C210.35,190.85,174.77,213.25,167.88,245.85Z"/><path class="cls-10" d="M162,348.34c-1.5-20.06-30.08-36-30.37-36.2l.53-.95c1.2.66,29.38,16.42,30.93,37.07Z"/><path class="cls-10" d="M165.13,332.59l-1.08-.19c2.73-15.66,26.49-33,34.29-38.76,1.11-.81,2.06-1.51,2.2-1.66l.82.73a25.29,25.29,0,0,1-2.37,1.81C191.27,300.17,167.78,317.36,165.13,332.59Z"/></g></g><path class="cls-11" d="M419,324.88c5.7,12.3.27,24.61-4.94,32.89a12.47,12.47,0,0,0-3.22.66c-11.33,2.76-16.65,1.35-28.17,2.19-2.48.18-9.85-1.67-12.81-2.64l-5.48-1.89s-9.74-29.93,5.56-38.19,9.45-38.06,8.16-54.3c-3.48-44.08,44.15-40.07,44.21-97.07,0-15.16-5-44.07,7.75-56.15,14.56-13.75,25.19-.26,34.55-11.76,14.64-18,38.38-24.43,52.54-5.93,14,18.26-3,54.62-45.21,83.83-27.9,24.39-28.33,31.7-26.14,49.48,1.54,12.45,13.42,44.9-3.48,57.85S412.45,310.81,419,324.88Z"/><g class="cls-12"><g class="cls-6"><path class="cls-7" d="M388.63,361.08l-.84-.1c.62-5,1.31-10.06,2-15A531,531,0,0,1,415.7,242.69a427,427,0,0,1,36.14-75.63A357.34,357.34,0,0,1,489.41,116a285.52,285.52,0,0,1,29.5-28.91c1.75-1.47,3.62-2.87,5.42-4.23,2.41-1.81,4.9-3.68,7.12-5.72l.57.63c-2.25,2.06-4.75,3.95-7.18,5.77-1.79,1.35-3.65,2.74-5.38,4.2a282.77,282.77,0,0,0-29.41,28.82,356.22,356.22,0,0,0-37.48,51A426.36,426.36,0,0,0,416.49,243,530.9,530.9,0,0,0,390.68,346.1C389.94,351,389.25,356.08,388.63,361.08Z"/><path class="cls-7" d="M436.59,196.33l-.77-.36c15.45-32.94,1.88-93.79,1.74-94.4l.83-.19C438.53,102,452.16,163.12,436.59,196.33Z"/><path class="cls-7" d="M401.43,292.25l-.8-.26c7.88-23.62,52.09-41.84,52.53-42l.32.79C453,250.93,409.19,269,401.43,292.25Z"/><path class="cls-7" d="M398.12,306l-.84-.12c2.34-16.09-3.06-39.27-15.21-65.27-.61-1.31-.61-1.31-.59-1.47l.84.11-.42,0,.41-.11c0,.09.26.59.53,1.16C395.05,266.44,400.48,289.79,398.12,306Z"/><path class="cls-7" d="M389.9,352l-.77-.36c7.54-16.23,33.3-22.64,33.56-22.7l.2.82C422.63,329.78,397.26,336.09,389.9,352Z"/><path class="cls-7" d="M387.35,361.15c-3.2-14.08-10.54-27.7-22.44-41.64l.64-.55c12,14.05,19.4,27.79,22.62,42Z"/><path class="cls-7" d="M482.19,125.69l-.75-.4C491.05,107.46,497,86.49,499,79.61a23.73,23.73,0,0,1,.74-2.45l.76.37c-.07.15-.34,1.1-.69,2.31C497.83,86.75,491.84,107.78,482.19,125.69Z"/><path class="cls-7" d="M462.27,152.38l-.6-.6c13.54-13.33,51.54-12.91,53.15-12.88l0,.85C514.41,139.74,475.56,139.3,462.27,152.38Z"/></g></g><g class="cls-13"><path class="cls-14" d="M351.73,431.47,401.13,447s17.24-22.42,10.74-44.1c-13.26-44.22,26.4-52.75,42.48-58.81,24.24-9.13,39-26.13,19.58-46.24-22-22.76,13.45-53.9,54.73-63,40.4-8.91,47.86-85.87-41.35-74.6-53.27,6.73-61.46,58.41-71.79,83.53s-49.41,15.21-46.16,50.87c2.78,30.47,18,56.8-4.13,70.22S335,398.47,351.73,431.47Z"/><g class="cls-6"><path class="cls-10" d="M371.68,442.76l1.08.13c.08-.67,8.6-67.9,37.14-132,26.3-59,75.46-127.46,160.35-118l.12-1.09c-37.78-4.22-71.76,6.38-101,31.49-23.33,20.07-43.69,49.39-60.5,87.15C380.29,374.71,371.76,442.08,371.68,442.76Z"/><path class="cls-10" d="M457.65,234.34l1.07.19c6.51-35.78,35-80.59,35.25-81l-.92-.59C492.77,153.35,464.19,198.34,457.65,234.34Z"/><path class="cls-10" d="M477.57,218.14c42-10.87,71.47,9.9,71.76,10.11l.64-.88c-.3-.22-30.2-21.29-72.67-10.29Z"/><path class="cls-10" d="M393.53,353.81c27.07-45.51,97.71-36.61,98.4-36.46l.29-1.05c-.65-.21-72.32-9-99.63,36.95Z"/><path class="cls-10" d="M399.74,332.88l1.08.11c3.33-33.63-24.1-66.08-24.38-66.41l-.83.71C375.89,267.61,403,299.72,399.74,332.88Z"/><path class="cls-10" d="M374.33,432.34c7.51-18.66,39.58-25.25,39.9-25.32L414,406c-1.34.27-33,6.77-40.69,26Z"/><path class="cls-10" d="M376.14,416.39l1.08.15c2.14-15.76-15.25-39.52-21-47.32-.81-1.1-1.5-2.06-1.59-2.25l-1,.45a23.81,23.81,0,0,0,1.71,2.44C361,377.58,378.21,401.07,376.14,416.39Z"/></g></g><path class="cls-15" d="M398.49,444l-.56.26a108.78,108.78,0,0,1-39.05,9.61l-8.91-.06c-2.67-7-4-14.09,5-17.07,13.91-4.63,13.5-29.33,9.38-38-5.09-10.66-16.44-35.74,5-43.24,17.81-6.23,30.58-6.62,31.13-29.81s12.75-38,33.79-37.29c22.14.77,39.36-29.2,57.77-19.91,32.07,16.18,5,68.08-32.87,84s-15.48,29.11-13.87,48c2.21,25.82-32.93,21.36-41.86,31.81A21.24,21.24,0,0,0,398.49,444Z"/><g class="cls-16"><g class="cls-6"><path class="cls-7" d="M377.09,451.15l-1-.18c13-75.2,62.51-143.7,129.1-178.77l.49.92C439.34,308.05,390.08,376.26,377.09,451.15Z"/><path class="cls-7" d="M387.72,410.76l-1.05,0c-.81-30-27.11-52.66-27.38-52.89l.68-.79C360.24,357.34,386.89,380.3,387.72,410.76Z"/><path class="cls-7" d="M379.87,437.38l-.93-.47c13.71-27.14,68.83-32.43,69.39-32.48l.09,1C447.87,405.52,393.32,410.75,379.87,437.38Z"/><path class="cls-7" d="M423,344.81l-1-.39c9-22.38-6.37-56-6.52-56.37l.94-.44C416.63,288,432.18,322,423,344.81Z"/><path class="cls-7" d="M455.35,308.7l-.57-.88c23-15,59.49-8.05,59.85-8l-.2,1C514.07,300.79,478,293.91,455.35,308.7Z"/></g></g><path class="cls-17" d="M420.14,45V552.05c0,7.58-6.48,9.22-13.82,9.46l-251.79,13-3.82.12a13.75,13.75,0,0,1-14.24-13.8V36.17a13.75,13.75,0,0,1,14.24-13.8l5.18.17L408.6,42.2C416,42.44,420.14,37.39,420.14,45Z"/><path class="cls-18" d="M428,45V552.05c0,7.58-6,14-13.34,14.23l-256.08,8.37a13.74,13.74,0,0,1-14.24-13.8V36.17a13.74,13.74,0,0,1,14.24-13.8l256.08,8.38C422,31,428,37.39,428,45Z"/><path class="cls-19" d="M419.7,72.85V542.6a13.2,13.2,0,0,1-12.48,13.26l-240.79,7.57a12.83,12.83,0,0,1-13.26-12.88V65.5a12.86,12.86,0,0,1,13.26-12.91l240.79,7A13.18,13.18,0,0,1,419.7,72.85Z"/><path class="cls-20" d="M293.32,42.34a4.63,4.63,0,0,1-4.75,4.7,5,5,0,0,1-4.76-5,4.63,4.63,0,0,1,4.76-4.7A5,5,0,0,1,293.32,42.34Z"/><path class="cls-21" d="M382.33,358.12,190,360.7a4.34,4.34,0,0,1-4.41-4.35V314.24A4.45,4.45,0,0,1,190,309.8l192.31-1.3a4.21,4.21,0,0,1,4.18,4.27v41A4.31,4.31,0,0,1,382.33,358.12Z"/><path class="cls-21" d="M381.89,435.69l-191.41,4.55a4.73,4.73,0,0,1-4.87-4.75V394.3a5,5,0,0,1,4.87-4.95l191.41-3.28a4.58,4.58,0,0,1,4.62,4.66v40.11A4.82,4.82,0,0,1,381.89,435.69Z"/><path class="cls-22" d="M362.91,182.68c0,42.26-33.62,76.53-75.52,76.54-42.36,0-77-35-77-78.08s34.69-77.39,77-76.53C329.29,105.46,362.91,140.41,362.91,182.68Z"/><path class="cls-23" d="M318.53,159a31,31,0,0,1-31.11,31.24c-17.28-.16-31.33-14.51-31.33-32A31,31,0,0,1,287.42,127C304.63,127.25,318.53,141.59,318.53,159Z"/><path class="cls-24" d="M287.39,259.22a74.64,74.64,0,0,0,48.49-17.79c-4.45-23-24.4-40.53-48.49-40.72a49.88,49.88,0,0,0-49.12,40.5A76,76,0,0,0,287.39,259.22Z"/><path class="cls-25" d="M313.87,340.21l-105,1.14a6.44,6.44,0,0,1-6.5-6.44h0a6.61,6.61,0,0,1,6.5-6.58l105-1a6.3,6.3,0,0,1,6.3,6.35h0A6.46,6.46,0,0,1,313.87,340.21Z"/><path class="cls-26" d="M218.12,414.12a8.49,8.49,0,0,1-8.27,8.46,8.08,8.08,0,0,1-8.28-8.12,8.49,8.49,0,0,1,8.28-8.47A8.09,8.09,0,0,1,218.12,414.12Z"/><path class="cls-27" d="M249.06,413.48a8.44,8.44,0,0,1-8.19,8.44,8,8,0,0,1-8.22-8.1,8.44,8.44,0,0,1,8.22-8.43A8,8,0,0,1,249.06,413.48Z"/><path class="cls-28" d="M279.76,412.86a8.38,8.38,0,0,1-8.13,8.39,8,8,0,0,1-8.15-8.06,8.4,8.4,0,0,1,8.15-8.4A8,8,0,0,1,279.76,412.86Z"/><path class="cls-29" d="M310.21,412.23a8.35,8.35,0,0,1-8.07,8.37,7.94,7.94,0,0,1-8.08-8,8.34,8.34,0,0,1,8.08-8.36A7.94,7.94,0,0,1,310.21,412.23Z"/><path class="cls-30" d="M340.41,411.61a8.29,8.29,0,0,1-8,8.33,7.88,7.88,0,0,1-8-8,8.29,8.29,0,0,1,8-8.33A7.9,7.9,0,0,1,340.41,411.61Z"/><path class="cls-22" d="M287.38,261.1a77.86,77.86,0,0,1-55.73-23.43,79.91,79.91,0,0,1-23.19-56.53A78.31,78.31,0,0,1,232,124.73a76.36,76.36,0,0,1,55.45-22,78,78,0,0,1,54.78,24.07,80,80,0,0,1,22.58,55.87,78.51,78.51,0,0,1-22.59,55.43,76.44,76.44,0,0,1-54.81,23Zm-1.55-154.63a72.65,72.65,0,0,0-51.22,20.94,74.57,74.57,0,0,0-22.39,53.73,76.2,76.2,0,0,0,22.1,53.9,74.16,74.16,0,0,0,53.06,22.3h0c40.61,0,73.64-33.5,73.64-74.66s-33-75.37-73.67-76.19Z"/><path class="cls-31" d="M428,44.68a14,14,0,0,0-13.49-13.94L274.84,26.18c51.8,54.89,63.45,100.94,64.78,132.42,3.79,89.83-73.6,129-59.21,227.21,3.95,26.94,12.67,43.85,16.08,90.38a443.15,443.15,0,0,1-3.16,94.05l121.31-4C422,566,428,559.63,428,552.05Z"/><path class="cls-32" d="M221.22,297.76c1.47-43.27-13.36-61.36-17.29-65.79-2.77-3.13-5.34-5.35-24.53-21.19-14.26-11.77-26.14-21.52-34.57-28.43L144.32,546A452.15,452.15,0,0,1,169.5,442C193,379.27,219.33,353.29,221.22,297.76Z"/><path class="cls-33" d="M467.75,470.06c8.4-5.07,4.88-32-7.46-50.48-17.53-26.3-54.22-37.79-61.35-29.5-7.29,8.49,15.73,38.47,19.47,43.34C432,451.09,457.82,476.07,467.75,470.06Z"/><path class="cls-34" d="M563.13,581.27c-1.44,1.91-1.52,5.18,0,6.66s3.45.09,9.29-.26c6.25-.36,8,1,12.14-.58,1.67-.63,4.59-2.05,4.42-3.26-.11-.86-1.69-1.16-7-2.43-7.52-1.79-7.5-1.93-9.07-2C569,579.05,565,578.75,563.13,581.27Z"/><path class="cls-35" d="M563,571l6.56,8.71c0,.61-2.37,3.46-5.35,3.3l-7.89-7.89Z"/><path class="cls-36" d="M529.21,603.43c-1.4,1.94-1.4,5.22.16,6.66s3.45,0,9.28-.45c6.24-.5,8,.79,12.12-.84,1.66-.66,4.55-2.14,4.36-3.36-.14-.85-1.72-1.12-7-2.27-7.55-1.64-7.53-1.78-9.1-1.86C535,601.09,531.06,600.88,529.21,603.43Z"/><path class="cls-37" d="M529,593.33l6.56,8.71c0,.6-2.37,3.46-5.35,3.3l-7.88-7.89Z"/><path class="cls-38" d="M330.21,394.4a136.37,136.37,0,0,1,43.62-9c21.09-.79,38-1.42,50.09,8.11,40.15,31.71,20.47,115.27,17.57,124.56a56.7,56.7,0,0,1-10,18.57,47.74,47.74,0,0,1-9.9,8.52c-30.2,20-49,32.4-68.8,27.33-2.64-.68-14.62-4.83-21.24-14.8a14.22,14.22,0,0,1-2.1-7.24C326.36,497.88,332.57,445.07,330.21,394.4Z"/><path class="cls-39" d="M347.53,457.09c-4-11,.13-23.62-8.84-29.12a21.59,21.59,0,0,0-11.82-2.77c.55,38.72,1.33,77.4,2.29,117.81.32,13.34,2,14,14.93,25.69,15,13.54,27.33,9.18,49.49,4.73-29-17.83-36.25-27.52-33.29-43.37,3.45-18.45,37.23-23.92,35.87-37C394.71,479.12,356.34,481.17,347.53,457.09Z"/><path class="cls-40" d="M339.47,395.1c-10-5.57-32.89,10.27-45.42,23.93-5.82,6.35-26.09,28.45-19.79,56.89,1,4.63,5.77,26.3,26.89,36.21,18.9,8.87,43.85,5.47,63.4-8.83l8-6.88,7.8-8.19a67.18,67.18,0,0,0-22-9.91c-15.59-3.91-22.6,1.57-26.45-2.68-4.75-5.22,5.82-14.23,8.6-37.22C341.26,432.21,350.61,401.32,339.47,395.1Z"/><path class="cls-41" d="M357.58,566.17c1.22,21.91,9.46,9.77,28.11-9.89,19.64-20.71,65.85-57.1,96.69-43.21,23,10.35,20.74,41,57.47,60.17a89.39,89.39,0,0,0,15.61,6.38l11.94-11c-2.14-11.45-11.67-55.08-51.51-82.58-9.64-6.65-28-19.46-51.26-19.16C401.78,467.66,356.44,546,357.58,566.17Z"/><path class="cls-42" d="M328.62,556c.26,12.75,8.59,24.44,18,30.14,20.82,12.67,52-1,69.46-15,21.25-17,21.24-33.66,32.1-33.58,16.87.12,19.81,40.47,57.47,60.17a90.69,90.69,0,0,0,15.61,6.38l11.93-11a179.21,179.21,0,0,0-24.09-53.84c-9.3-13.93-18.25-27.35-35.58-37.07-18.25-10.24-35.69-10.71-43.1-10.83C383.66,490.63,327.94,522.74,328.62,556Z"/><polygon class="cls-43" points="455.49 479.42 339.8 500.28 373.37 509.08 457.25 486.88 455.49 479.42"/><path class="cls-44" d="M336.33,504.14h0a5.25,5.25,0,0,0,4.32,4.17l39.69,7.23-1.8-10-38.74-5.21A3.24,3.24,0,0,0,336.33,504.14Z"/><path class="cls-45" d="M354.91,495.06c-.73,0,1.8-9.11,5.25-8.8s21.22,6.45,23.42,10l2.2,3.53s-6.86,1.9-11.46,1.3S360.92,495.22,354.91,495.06Z"/><path class="cls-46" d="M375,433.29l-2.54,75.85c-.09,2.62,3.84,6.21,6.44,5.89l120.63-16.66a4.27,4.27,0,0,0,3.72-3.83l9.68-73.81c.25-2.68-4.71-5-7.38-4.77L378.82,429.2A4.26,4.26,0,0,0,375,433.29Z"/><path class="cls-47" d="M377.94,435.28l-2.54,75.85a4.26,4.26,0,0,0,4.78,4.37l122.29-15.15a4.25,4.25,0,0,0,3.71-3.83l7-73.93a4.26,4.26,0,0,0-4.69-4.64L381.75,431.18A4.26,4.26,0,0,0,377.94,435.28Z"/><path class="cls-48" d="M454.3,486.29c-11.06-3.73-7.94-12.68-21.41-22.51-17.78-13-34.33-5.5-41.12-16.08-2.12-3.3-3.41-8.58-.84-17.48l-9.18,1a4.26,4.26,0,0,0-3.81,4.1l-2.54,75.85a4.26,4.26,0,0,0,4.78,4.37l122.29-15.15a4.25,4.25,0,0,0,3.71-3.83l1-10.2a46.54,46.54,0,0,0-13.75-4C475.12,480,467,490.58,454.3,486.29Z"/><path class="cls-49" d="M374.72,356.54a91,91,0,0,1-1,18.33c-.76,4.9-1.39,6.18-2.23,7.23a7.36,7.36,0,0,1-.56.64c-.76.76-10.35,2.63-13.18,3.29-.3.07-5.83,1.41-7.42,4.39a.72.72,0,0,0-.06.17c-.55,3,16.46,12.41,33.54,9.34,10.46-1.88,19.8-8.23,19.09-11.36s-11.15-1.05-14.49-6.67c-2.33-3.91-.1-9.66,2.61-14.46C388.08,362.31,377.71,361.67,374.72,356.54Z"/><path class="cls-50" d="M397.15,365.66c6.68-1.94,11-25,5.37-27.73-2.69-1.33-4.68,3.43-15.39,7.7-8.58,3.41-12.2,2.31-14.57,6.07s-.91,9.1-.17,12.92c.32,1.65,1.39,2.43,2.24,3.82,1.17,1.92,3,5,5.95,10a28.37,28.37,0,0,1,2.48-4.12c.42-.58,2.1-2.84,7.08-6.22A16.69,16.69,0,0,1,397.15,365.66Z"/><path class="cls-51" d="M375.82,373.71s2.75,8,11.46,9.37c7.8,1.2,12.74-15.8,8.63-20.54-1.36-1.58-4.53-2.82-7.37-2.66-1.67.1-2.35.63-5.09.73-2.52.09-3.14-.32-4,.13-1.07.56-2.14,2.27-1.75,7.65-1.14-1.81-2.78-2.77-4.16-2.46a2.72,2.72,0,0,0-1.24.77C370.8,368.43,372,371.35,375.82,373.71Z"/><path class="cls-52" d="M379.34,359.63c.31.36-1.13,1.49-1.65,3.43-1,3.77,1.84,9.18,5.67,10.43,2.27.74,3.22-.51,7.15-.07A17.73,17.73,0,0,1,396,375c.29,4.43-1.77,8.34-5,9.65-3.46,1.42-7-.69-8.5-1.57-1-.59-4.18-2.47-5.28-6s1.13-5.27-.53-8c-.83-1.36-2.14-2.16-3.05-4.63a11.05,11.05,0,0,1-.46-1.63C375.68,361.15,378.89,359.11,379.34,359.63Z"/><path class="cls-53" d="M392.9,375.91a9.58,9.58,0,0,1-4.69-.3c-.14,0-.3,0-.33,0-.13.26,1.44,1.88,3.25,1.78,1.27-.07,2.46-1,2.37-1.33C393.45,376,393.18,375.92,392.9,375.91Z"/><path class="cls-54" d="M11,284.78c-3.2-9.42-1-20.24,4-27.81,8.36-12.79,19.26-8.34,30.18-22.52,7.06-9.18,13.48-17,21.32-22.88,5.77-4.31,19.42-9.2,24.75-5.81,16,10.16-13.32,96.62-45.59,101.54C32.75,309.27,15.83,298.94,11,284.78Z"/><path class="cls-55" d="M72.23,557.82a22.06,22.06,0,0,1,2,11.7c-.94,1.38-5.32,6.12-11.23,7.29-3.66.72-9.59-2.38-2.87-6.57S67.87,565,65.9,554.3c-.51-2.76-.31-3.77.12-4C67,549.88,69.92,554.12,72.23,557.82Z"/><path class="cls-56" d="M103.21,566a22.38,22.38,0,0,1,2.06,7.79,21.74,21.74,0,0,1,0,3.91c-.93,1.38-5.31,6.12-11.22,7.29-3.66.73-9.59-2.37-2.87-6.57s7.72-5.21,5.74-15.93c-.5-2.76-.31-3.77.13-4C98,558.08,100.9,562.31,103.21,566Z"/><path class="cls-57" d="M135.42,341.88l6.66,40.58a386.36,386.36,0,0,0-13.22,41.79C115,478.63,106.39,531,105.76,568.52l-9.15,3.31C91.15,551.21,92.8,520,88,483.27c-5.74-43.43-1.84-77.38-3.83-77.5s-7.27,31-7.28,66.47c0,37.52-4.33,67.73-1.55,89.42l-11,.66c-10.11-28.69-14.53-62.86-19.65-108C41.13,422.9,36.94,381.21,57.9,338.2c2.1-4.29,9.4-13.83,10.77-16.18C92.71,326.62,111.38,337.29,135.42,341.88Z"/><path class="cls-58" d="M128.86,424.25a386.36,386.36,0,0,1,13.22-41.79l-6.66-40.58c-24-4.6-42.71-15.26-66.75-19.86C67.3,324.37,60,333.91,57.9,338.2a156.3,156.3,0,0,0-13.6,42.7c46.51-.51,60,9.18,63.67,18.1,5.9,14.22-12,28.63-5.69,57.39,1.91,8.65,4.76,12.91,5.09,23.75.44,14.21-4.2,15.59-4.92,30.06-.8,15.82-6.28,31.29-3.71,42.51a138.81,138.81,0,0,0,4.91,16.58l2.11-.77C106.39,531,115,478.63,128.86,424.25Z"/><path class="cls-59" d="M115.49,154.2c1.49,2-.72,4.67-1.16,14.41a67.79,67.79,0,0,0,.36,10.83c.09,2.4.22,4.63.41,6.59.14,1.44.28,2.57.49,3.77a45.93,45.93,0,0,0,1.64,6.56.28.28,0,0,1-.16.34h0a.28.28,0,0,1-.35-.18A46.58,46.58,0,0,1,115,189.9c-.21-1.22-.36-2.36-.5-3.82-.09-1-.18-2.14-.25-3.31a30.7,30.7,0,0,0,.71,11c3.31,13.73-7.35,22.77-15.75,23.14-9.7.41-16.26-7.26-18.3-9.78-8.18-10.13-9.76-26.63-2.06-38.7C89,152.6,111.84,149.32,115.49,154.2Z"/><path class="cls-60" d="M91,167.43a21.2,21.2,0,0,1,8-11.72c10.87-7.45,28.3-1.47,38.29,7.3,10.45,9.17,6.1,15.52,16.38,25.71,11.16,11.06,19,6.23,34.51,16.92,6.1,4.2,22.55,15.53,23.65,33.21.95,15.27-9.85,30.57-23.07,36.47-22.63,10.1-51-7.94-64.34-24.53-12.82-15.91-4.17-19.81-22.4-50.54C95.44,189.14,87.89,178.9,91,167.43Z"/><path class="cls-61" d="M74.68,212A41.4,41.4,0,0,0,63.54,234.9c-2,14,3.47,25.4,4.76,28.4,6.09,14.15,3.85,42.06-31.68,102.16,3.37,2.82,15,23.66,20.53,13.66,7.5-13.62,41.57-109.49,8.72,4.12-.44,1.5,2.91,1.19,4.43,1.76a107.07,107.07,0,0,0,38.91,6.86,109.33,109.33,0,0,0,50.53-13.29,213.54,213.54,0,0,1-15.91-59.39c-5.44-46.58,5.89-84.14,13.79-104.4-7.2-5-30-19.4-57-14.74C93.88,201.2,83.39,203.16,74.68,212Z"/><path class="cls-62" d="M143.83,319.18c-5.44-46.58,5.89-84.14,13.79-104.4-7.2-5-30-19.4-57-14.74-6.73,1.16-17.22,3.13-25.93,11.94a40.59,40.59,0,0,0-10.5,19.53l.81-.12c16.62-2.3,35.82,11.08,42.39,23.73,11,21.11-14.25,38.36-13.62,71.82C94.1,345,102,366.42,126,390.31a110.94,110.94,0,0,0,33.74-11.74A213.54,213.54,0,0,1,143.83,319.18Z"/><path class="cls-63" d="M106.92,183.29c-2.37,4.81-4.37,10.82-1.76,14.85,1.59,2.46,4.22,3.83,6.81,5.12,6.14,3.05,9,1.81,10.2,3.66,2.67,4.07-4.88,19.61-17.2,21s-23.34-12-21.5-17.65c1.67-5.09,13.73-3.5,15.89-9.93,1.08-3.24-.9-6.83-2.65-9.27l-1.44.13Z"/><path class="cls-64" d="M122.17,206.92c-1.21-1.85-4.06-.61-10.2-3.66-2.59-1.29-5.22-2.66-6.81-5.12-2.61-4-.61-10,1.76-14.85l-11.65,7.87,1.44-.13c1.39,1.94,2.9,4.6,2.93,7.24a9.75,9.75,0,0,1,2.07,1.85,26.62,26.62,0,0,0-2.36,8.39c-.33,3-.57,5.26.72,7.38,1.42,2.31,3.83,3.12,5.94,3.83a21.74,21.74,0,0,0,11.95.36C121.94,215.11,123.67,209.21,122.17,206.92Z"/><path class="cls-65" d="M104.77,187.92s.41,6.18-5.6,7.21c-7.4,1.27-11.48-18.14-9.87-19.55,1.88-1.65,4.23,1.22,8.91-.7,2-.8,3.3-3.73,4.81-1.07,1.72,3,1.68,8.92,1.68,8.92s1.51-1.75,2.07,0C107.51,184.91,106,186.62,104.77,187.92Z"/><path class="cls-66" d="M93.73,165.44c-2.63,2.18-4.42,6.73-3,9.26,2,3.63,9.36.82,11.78,5.26,1.07,1.94.73,4.46,1.39,4.48s1-1.69,1.49-3.1c2.53-7.74,4.6-8.43,4.23-10.76C108.86,165.84,99.11,161,93.73,165.44Z"/><path class="cls-67" d="M137.22,214.12c8.17.51,9-1.93,18,4.68,25.95,19,42.78,72.62,17,98.54-14.31,14.41-40.43,23.21-62.64,12.21-18.09-9-24.76-26.66-26.38-31.4q.45-7.12.89-14.26c10.16,11,18.89,13.73,25.22,14.07,10.78.58,15.25-5.85,33.68-6.87,7.18-.39,11.2.32,12-1.63,1.73-4-13.94-10.55-21.32-22.52C128.39,258.21,125.13,242.86,137.22,214.12Z"/><path class="cls-68" d="M105.38,174c-1.84,1.63,1.17,8,7.25,20.64,3.75,7.78,5.62,11.68,6.91,13.41,6.91,9.32,19.38,17.25,32.76,17.89,9.18.43,10.88-2.94,18.23-.91,11.09,3,16.55,13.28,17.11,12.83s-5.4-13.49-19-25.22c-11.11-9.6-14.62-7.41-32.25-20.94-1.28-1-6.69-5.15-14.38-10C113,176,107.21,172.39,105.38,174Z"/><path class="cls-69" d="M33.15,245.62,52,292.3a3,3,0,0,0,1.89,1.81L75.67,301a3,3,0,0,0,3.79-3.61L67.84,253.28c-.27-1-1-3.25-3-3.87l-26.49-7.65C36,241.06,32.29,243.31,33.15,245.62Z"/><path class="cls-70" d="M32.91,246.36l16.7,45.18a3,3,0,0,0,1.9,1.81l21.76,6.91a3,3,0,0,0,3.79-3.61L65.43,252.51a3,3,0,0,0-2-2.1l-26.83-8A3,3,0,0,0,32.91,246.36Z"/><path class="cls-71" d="M85.32,287.72,83,285.58a52.62,52.62,0,0,0-5.71-6.6c-2.44-2.16-4.84-2.59-7.45-.52s-.39,5.5,1.49,8.49c1.15,1.82,4.37,3,7.06,3.68,1.88.49,5.19,2.95,5.19,2.95Z"/><path class="cls-72" d="M35.44,267.29,37.6,265a52.36,52.36,0,0,0,6.65-5.65c2.17-2.43,2.62-4.82.57-7.44s-5.5-.44-8.5,1.42c-1.83,1.13-3,4.34-3.73,7-.51,1.88-3,5.17-3,5.17Z"/><path class="cls-73" d="M29.23,262.7l8.37,4.18c.86,1.08,11,14.42,5.59,27.22-.7,1.66-3.37,7.95-8.63,9.07-8.12,1.71-20-9.42-19.57-21.37C15.24,273.8,21,266.44,29.23,262.7Z"/></g></g></svg>