<svg id="Layer_1" data-name="Layer 1" xmlns="http://www.w3.org/2000/svg" viewBox="0 0 589 630"><defs><style>.cls-1{fill:#ebf3fa;}.cls-2{fill:#4f75ba;}.cls-3{fill:#739af0;}.cls-4{fill:#ffb27d;}.cls-5{fill:#ea8e50;}.cls-6{fill:#992525;}.cls-7{fill:#233862;}.cls-8{fill:#2b478b;}.cls-9{fill:#ffb07b;}.cls-10{fill:#bc3f3f;}.cls-11{fill:#f99746;}.cls-12{fill:#2c3a64;}.cls-13{fill:#ed985f;}.cls-14{fill:#253d78;}.cls-15{fill:#ed7d2b;}.cls-16{fill:#ed975d;}.cls-17{fill:#163560;}.cls-18{fill:#11294a;}.cls-19{fill:#fff;}.cls-20{fill:#2e3552;}</style></defs><title>otpImage</title><path class="cls-1" d="M39,464.26s-69.43-73.81-22.19-159.79C53.29,238.15,141.44,250,186.67,278c19.27,12,60.66-10,113.15-76.51C360.76,124.26,596.7,171.4,556,319c-19.72,71.43,60,74,19.39,145.42Z"/><path class="cls-2" d="M533.22,463.67H357.08a31.92,31.92,0,0,1-31.92-31.93V279.25a120.1,120.1,0,0,1,73.28-110.56c12.76-5.4,9.71-8.67,23.54-9.42,2.22-.12,20.93,0,23.17,0a119.92,119.92,0,0,1,120,120V431.74A31.93,31.93,0,0,1,533.22,463.67ZM362.66,285.6h165v-6.35a82.5,82.5,0,1,0-165,0Z"/><path class="cls-3" d="M512,463.67H335.83a31.92,31.92,0,0,1-31.92-31.93V279.25a120,120,0,1,1,240,0V431.74A31.93,31.93,0,0,1,512,463.67ZM341.41,285.6h165v-6.35a82.5,82.5,0,1,0-165,0Z"/><path class="cls-2" d="M438.75,345.37a14.79,14.79,0,0,0-3.6-9.69c-2.06-3.06-6.32-5.16-11.25-5.16s-9.18,2.1-11.24,5.16a14.85,14.85,0,0,0,6.81,23.86V382c0,1.81,2,3.28,4.43,3.28s4.44-1.47,4.44-3.28V359.54A14.85,14.85,0,0,0,438.75,345.37Z"/><path class="cls-4" d="M226.56,326.37c-.28,1.91-2.46,4.12-4.78,5.77a22.88,22.88,0,0,0-4.39,4.53l-.53.58-2.67-3.11a.78.78,0,0,0,.13-.11,21.69,21.69,0,0,0,3.11-4.11c2.22-4.05,5.31-4.64,5.31-4.64S225.69,325.71,226.56,326.37Z"/><path class="cls-5" d="M88.71,365.31l1.81,1.47s4.93-1.77,6,4.09c0,0,.3,2.5-1.28,2.5s-.93-.27-3.17-.21-4.1-1.11-4.43-2.93l-1.07-1.54Z"/><path class="cls-6" d="M88.51,368.45a3.66,3.66,0,0,0,1.32-2.61S73.17,352.2,71.48,351.09c-1.15-.76-12.76-11.88-19.15-18.27-3.08-3.07-6.37-2-10.4-.85l-3.32.95c-4,1.15-5.06,6.76-1.77,9.48,9.27,7.68,24.68,16.31,27.56,18.12,7.16,4.5,21.17,9.86,21.17,9.86A9,9,0,0,0,88.51,368.45Z"/><path class="cls-7" d="M107.52,452.26a12.55,12.55,0,0,0,10.24,1.42s5-1.13,6.09,1.36c0,0-7.66,3.89-9.6,4.95a23.65,23.65,0,0,0-4.06,3.05,2,2,0,0,1-2.91-.22c-.34-.42-.72-.91-1.15-1.48-1.18-1.6-3.93-6.78-3.93-6.78Z"/><path class="cls-8" d="M109.9,450.72s-2.47,5.67-8.15,4.63c0,0-11.6-9.58-19.55-19.53a44.67,44.67,0,0,1-6.08-9.49c-5.27-12.21-19.51-30.43-28.56-39.66l22.65-8.19s7.25,14.59,16.9,32.51C94.07,423.91,102.27,438.55,109.9,450.72Z"/><path class="cls-7" d="M87.11,411,82.2,435.82a44.67,44.67,0,0,1-6.08-9.49c-5.27-12.21-19.51-30.43-28.56-39.66l22.65-8.19S77.46,393.07,87.11,411Z"/><path class="cls-7" d="M68.6,455.55s-.25,4.53,5.25,5.13c0,0,3.13,0,3.14,2.9l-16,.05a12.42,12.42,0,0,1-.57-3.65c-.09-1.91,1.85-6.91,1.85-6.91Z"/><path class="cls-8" d="M62.78,378.48s10.09,11.08,16.49,31.06c3.49,10.86-6.38,38.19-8.31,47.68,0,0-6.62.56-11.15-1.19,0,0-.34-19.61,2.31-34.72,1.48-8.46-13.29-18.09-19.74-33.37-4.39-10.39.95-10.22,7.51-10.47Z"/><path class="cls-9" d="M51.13,329c-5.61,3.17-17.1.24-17.1.24s4.66-5.33,2.54-13.92L41,317.57,45.71,320a38.27,38.27,0,0,1,.52,4.24c.06.7.11,1.49.14,2.34A14.8,14.8,0,0,1,51.13,329Z"/><path class="cls-10" d="M71.72,377.91c0,1-1.14,1.45-1.38,1.5-2.27.42-8.59,2.88-14.28,3.44a45.8,45.8,0,0,1-14.14-1c-.65-.13-2.17-.54-2.28-1.16s-18.86-38.18-4.3-54.29c.34-.38,3.21.3,5.84.92a10.77,10.77,0,0,0,6.65-.54l2.46,1.3c3,1.68,8.76,7.68,9.43,12.38.34,2.39,1.7,4.16,2.1,6.27.15.77.3,1.53.45,2.27.3,1.46.61,2.84.92,4.15.86,3.56,1.76,6.62,2.65,9.27.94,2.81,1.87,5.14,2.7,7.1,1.07,2.53,2,4.42,2.55,5.87A7.34,7.34,0,0,1,71.72,377.91Z"/><path class="cls-6" d="M71.09,375.43c-26.44-12.45-35.6-36.37-35.6-36.37S57,347,62.27,349c.3,1.46.61,2.84.92,4.15.86,3.56,1.76,6.62,2.65,9.27.94,2.81,1.87,5.14,2.7,7.1C69.61,372.09,70.52,374,71.09,375.43Z"/><path class="cls-11" d="M104.63,369.29H90A25.42,25.42,0,0,1,64.64,343.9V296.34A25.42,25.42,0,0,1,90,270.94h14.6A25.42,25.42,0,0,1,130,296.34V343.9A25.42,25.42,0,0,1,104.63,369.29ZM90,285.94a10.4,10.4,0,0,0-10.39,10.4V343.9A10.4,10.4,0,0,0,90,354.29h14.6A10.4,10.4,0,0,0,115,343.9V296.34a10.4,10.4,0,0,0-10.39-10.4Z"/><path class="cls-11" d="M257.71,328.88H123.85V311.36H257.71a8.76,8.76,0,0,1,8.76,8.76h0A8.76,8.76,0,0,1,257.71,328.88Z"/><path class="cls-11" d="M240.91,325.35H255a0,0,0,0,1,0,0v34.33a7,7,0,0,1-7,7h0a7,7,0,0,1-7-7V325.35a0,0,0,0,1,0,0Z"/><path class="cls-9" d="M86.56,368.22l2.28.83a4.89,4.89,0,0,1,7.42,2s1,2.3-.6,2.8-1,0-3.33.79-4.55.21-5.41-1.42l-1.56-1.14Z"/><path class="cls-10" d="M88.44,371.45c.84-2.21,1.23-3.21,1.23-3.21S72.4,354.17,70.64,353c-1.2-.82-13.13-9.74-19-16.69a12.15,12.15,0,0,0-11.84-4.1l-3.62.76a5.38,5.38,0,0,0-2.4,9.36C43.39,350.49,59.51,360,62.52,362c7.46,4.91,24,11.79,24,11.79A4.25,4.25,0,0,0,88.44,371.45Z"/><path class="cls-5" d="M46.23,324.22c-5.52.31-9.11-4.25-9.11-4.25a42.9,42.9,0,0,0,3.86-2.4L45.71,320A38.27,38.27,0,0,1,46.23,324.22Z"/><path class="cls-9" d="M48.59,318.55s-8.37,6-12,.74-7.2-8-2-12.09,7.63-2.78,9.28-1.32S50.67,316.86,48.59,318.55Z"/><path class="cls-7" d="M44.71,301.13a13.52,13.52,0,0,0-1-3.45s-.53,2.17-4.5,1.87S29,300,26.87,304.47c-.14.29-.25.59-.36.89a10.42,10.42,0,0,1-.47-2.51,7.69,7.69,0,0,0,0,4.39h0l0,.21a8.93,8.93,0,0,0-1.62,3.05,2.79,2.79,0,0,1,1.49-1.32c0,3.52,1.41,7,3.92,8,3.67,1.5,3.64.36,7.32,2.8,0,0,1-1.22.32-2.05s-3.22-2-1.8-3.22,2,.15,2.47-.68-2.1-3.22,1.28-5.47S45,303.15,44.71,301.13Z"/><path class="cls-10" d="M191.21,458.89,188.13,460s-13.39-18.56-15-34.89a24.55,24.55,0,0,1,.44-8.35l-.36-2.07-.39-2.21c-.43-2.49-1-5.91-1.72-9.79-1.57-8.94-3.61-20.37-5.2-28.77l.83-.26,9-2.9,1.85-5.9,6.69-1.76s1.5,2.92,2.83,16.73c.25,1.81.47,3.81.64,6a118.62,118.62,0,0,1-.63,24.19c-.31,2.4-.7,4.88-1.18,7.42a33.75,33.75,0,0,0-.26,7.33C186.31,438.14,191.21,458.89,191.21,458.89Z"/><path class="cls-6" d="M187.7,385.85l-14.52,28.88-.39-2.21c-.43-2.49-1-5.91-1.72-9.79-1.57-8.94-3.61-20.37-5.2-28.77l.83-.26,9-2.9,1.85-5.9,6.69-1.76s1.5,2.92,2.83,16.73C187.31,381.68,187.53,383.68,187.7,385.85Z"/><path class="cls-10" d="M181.31,366.85,181,364c-5.64,1.5-20.69-4.18-20.69-4.18s-5.46,4.8-4.74,16.3c.35,5.61,1,29.46,1.65,36.52.24,2.56.46,4.38.54,5.11h0a1,1,0,0,1-.16.63,32.66,32.66,0,0,0-2.46,5.18c-6.55,17.45,1,39,1,39l2-.79s4.3-23.92,7.79-34.49a21.36,21.36,0,0,1,1.69-4c1.52-2.46,2.93-6.46,4.21-11.23a279.17,279.17,0,0,0,5.66-29.78C177.62,382.15,181.31,366.85,181.31,366.85Z"/><path class="cls-12" d="M215.68,331.06a15.58,15.58,0,0,1,5,3.68s-9.61,16.76-15.14,19.19c-3,1.34-12.54-8.81-14.5-14.49-.48-1.39,1.29-6,.71-7a9.82,9.82,0,0,1-1.29-3.64,1.7,1.7,0,0,1-.06-.51,8.12,8.12,0,0,1,.17-2.9c.22-.57.85-.81,1.77-.8h.33c5,2.93,11.51,17.31,12.59,17.65C208.09,338.65,215.68,331.06,215.68,331.06Z"/><path class="cls-4" d="M192.08,331.87a17.56,17.56,0,0,1-6.49,1.52c-9.69.53-11.89-8-12.29-13.6a8.21,8.21,0,0,1,3.33-.42c.68,0,1.4.11,2,.18,1.19-.62,3.31-3.62,4.54-8.65l.42.19,7,3.29s-.74,2.27-1.29,4.45c-.43,1.7-.73,3.35-.48,3.81l.88.36h0A48,48,0,0,1,192.08,331.87Z"/><path class="cls-8" d="M194.5,338.22l-.24.58c-2.46,5.28-7,27.17-7,27.17.65,3.93-29.57-.78-29.65-4.36-1.06-3.8,3.78-9.9,6.51-13a8.87,8.87,0,0,0,.91-1.23,8.5,8.5,0,0,0,1.24-3.62c.54-5.08-1.46-16.79-.92-19.05.21-.89,4.21,4.18,4.69,3.67a2.77,2.77,0,0,0,.89-1.76,9,9,0,0,0,0-1.47l-.09-.71c-.38-2.45-5.08-1.41-5.08-1.41,1.72-4.14,10.9-3.81,10.9-3.7s0,.26,0,.68c0,1.69,0,6,.54,6.84.68,1,13.06,5.5,13.71,4.11s-1.12-7.75-1.18-8h0a24.39,24.39,0,0,1,3,1.57C194.24,327.69,196.43,333.1,194.5,338.22Z"/><path class="cls-10" d="M186.16,292.57c0-.42-.34-4.94-7.23-5.18,0,0,3.39.4,4,1.89,0,0-2.31-1.84-4.19-1.25s-3,3.89-3,5,1,4.58,2.23,4.87a3.49,3.49,0,0,0,1.44,0,15.66,15.66,0,0,0-.93,1.65c-2.75,5.64.09,11.16,2.42,10.55,1.49-.39,1.91,2.16,1.91,2.16l14.51-11.75S192,289.47,186.16,292.57Z"/><path class="cls-13" d="M190.57,314.38s-.74,2.27-1.29,4.45c-4.08-1.14-5.33-5.44-5.7-7.74Z"/><path class="cls-4" d="M191.43,316.78s-9.77-2.26-8.27-8.32,1.25-10.44,7.56-9.26,6.93,3.8,6.93,5.95S194,317.22,191.43,316.78Z"/><path class="cls-10" d="M198.2,301.71c-1.06-2.2-2.29-2.08-3.07-1.69a7,7,0,0,0-9.09-.78,12,12,0,0,1-5.49,5.9s1.5,1.54,5.85,1.5a7.17,7.17,0,0,0,3.88-1.46,23.3,23.3,0,0,1-5.1,3.8c5.45-1,9.11-7.35,9.48-8a7.93,7.93,0,0,1,1.42,3.36c.1,1.66-.47,4.9.48,5C196.56,309.34,199.77,305,198.2,301.71Z"/><path class="cls-7" d="M167.53,464.07H152a8.54,8.54,0,0,1,.44-4.16c.77-1.72,2-2.51,1.7-4.59a5.58,5.58,0,0,0,4.84,1.85,16.66,16.66,0,0,0,2.69,3.49C162.69,461.39,167.22,461.13,167.53,464.07Z"/><path class="cls-7" d="M200.85,464.07H185.33a6.45,6.45,0,0,1,.44-4.16c.9-1.49.56-2.34-.11-3.57a6.08,6.08,0,0,0,2.61.49,5.57,5.57,0,0,0,2.31-.81,56.59,56.59,0,0,0,4.42,4.64C196,461.39,200.54,461.13,200.85,464.07Z"/><polygon class="cls-11" points="221.97 328.88 245.59 328.88 244.28 319.71 223.18 320.56 221.97 328.88"/><path class="cls-4" d="M226.11,311.36c-1.1,1.09-1.07,4.61-3.39,6.26a22.86,22.86,0,0,0-4.39,4.53l-.53.58-2.67-3.1.12-.12a21.84,21.84,0,0,0,3.12-4.1c2.21-4.05,5.3-4.65,5.3-4.65A4.41,4.41,0,0,1,226.11,311.36Z"/><path class="cls-14" d="M216.76,317.19l3.94,4.4L208,332.66a24.92,24.92,0,0,1-4.23,3,3.17,3.17,0,0,1-.37.16c-3.09,1.35-9.76,1.2-16.42.22-.93-.14-1.83-.29-2.72-.44a63.09,63.09,0,0,1-9-2.18,24.6,24.6,0,0,1-4-1.59,9.17,9.17,0,0,1-1-.58c-5.22-3.12-5-6-4.86-7.07a3.6,3.6,0,0,1,2.59-3c4.13-1.34,18,4,20.05,4.39,1.23.26,4.42,1.39,5.49,1.59a31.35,31.35,0,0,0,4.92.61,11.22,11.22,0,0,0,3.68-1.17C204.92,325.43,216.76,317.19,216.76,317.19Z"/><path class="cls-4" d="M218.31,330.48a3.5,3.5,0,0,1-.36-1.42,7.85,7.85,0,0,1,1.84-2.73c.37-.26.86-.89,1-.47a7.32,7.32,0,0,1-1.1,3.49A3.43,3.43,0,0,1,218.31,330.48Z"/><path class="cls-15" d="M452.34,277.62a21.62,21.62,0,0,0,7.48,8h17.33S449.82,273.22,452.34,277.62Z"/><path class="cls-4" d="M464.62,322.51c.45.52.84.49.62,1.11l-.1.31c-.42,1.14-1.2,1.94-2.78,3.21-.2.17-.41.3-.57.44s-.32.09-.36.13-.28.54-.31.56a50.42,50.42,0,0,0-3.83,3.74c-3,3.15-2.94,2.82-3.54,2.54s-.71-.84.42-2.71l.17-.28.45-.75c1.32-2.26,1-3.33.67-6.69-.26-2.74-4.26-15.28-4.26-15.28l5.81-1s1.75,10,3.67,11.53c1,.82,2.19.83,3.18,1.43l.2.13C464.63,321.31,464.17,322,464.62,322.51Z"/><path class="cls-10" d="M465.65,322.21a1.61,1.61,0,0,1,.29,1.71h0a12.18,12.18,0,0,1-3.37,3.68l-.53.46-.12.11-.1.09c-1.47,1.36-.92,1.67-3.58,4.44-3,3.15-5.11,3.21-5.7,2.92s.51-1.92,1.64-3.79a13,13,0,0,0,5.4-4c1.83-2.33,3.05-5.32,4.29-7.06l.2.13A7.57,7.57,0,0,1,465.65,322.21Z"/><path class="cls-4" d="M417.76,318.24c-.36,1.79-1.52,1.29-4.38.59s-2.19,0-6.25-.46-4.43-1.1-4.56-1.7.74-.9,2.89-1.15l.82-.1c2.43-.3,4.21-1.87,6.42-3.16s5.21-6.19,5.21-6.19l5.57.44s-2.92,4.44-4.05,6.37a6.73,6.73,0,0,0-.55,3.8C418.92,317.31,417.88,317.61,417.76,318.24Z"/><path class="cls-10" d="M413.07,319.38c-2.86-.7-2.18.13-6.24-.32s-5.29-2-5.42-2.57,1.9-.72,4-1l0,0a11.45,11.45,0,0,0,5.82,1.81c2.76.07,5.68-.72,7.58-.69a7.64,7.64,0,0,1,0,1.91C418.48,320.38,415.92,320.08,413.07,319.38Z"/><path class="cls-15" d="M440.18,283l5.21,14,6.8,18.29a10.94,10.94,0,0,0,3.61-.33,15.7,15.7,0,0,0,3.5-1.7s-1.89-19.64-5.41-30.92a20.41,20.41,0,0,0-3-6.55C445.4,269.32,440.18,283,440.18,283Z"/><path class="cls-11" d="M445.48,260.71c3.41-1.1,13.14.31,22.92,2.23l2-3.38,21.12-1.65s6.95,15.45,3.15,25.3c-.93,2.39-3.95,2.39-3.95,2.39H474.18c-10.5,0-22.22-7.21-23.74-7.52-2.48-.49-3.47,4.47-5.95,9.68s-23.33,23.08-23.33,23.08a18.1,18.1,0,0,1-4.53-.46,4.49,4.49,0,0,1-1.95-1.23S437.79,263.19,445.48,260.71Z"/><path class="cls-7" d="M470.57,230.49c7.51,4.14,22.77,12.72,22.85,12.66s5.6,2.11,8.78,0c5.3-3.52,8.15-13-1.55-21.15-4.83-4.06-8.27-5.05-8.79-11.55-.28-3.52-5.1-15.14-13.1-14.07a11.32,11.32,0,0,1-2,.13,7.5,7.5,0,0,0-4.06,1.05C468.16,200.26,459.3,228.88,470.57,230.49Z"/><path class="cls-4" d="M476.87,227s3.7,1.3,6.19.19,4.13-4.9,4.09-4.9c-1.06-.05-2.24-1-3.14-7.11l-.45.16-7.65,2.75s.55,2.46.91,4.79C477.12,224.81,477.29,226.68,476.87,227Z"/><path class="cls-16" d="M475.91,218.05s.55,2.46.91,4.79c4.39-.79,6.12-5.16,6.74-7.54Z"/><path class="cls-4" d="M474.77,220.49s10.46-1.4,9.49-7.91-.28-11.06-7-10.44-7.65,3.3-7.85,5.55S472,220.69,474.77,220.49Z"/><path class="cls-7" d="M469.79,204.13s6.7,5.77,11.25,6.23,6.28-1,6.28-1a17.86,17.86,0,0,1-4.3-5.83,3.19,3.19,0,0,0-2.64-1.89C477.13,201.37,471,201.24,469.79,204.13Z"/><path class="cls-7" d="M474,203.61a16.72,16.72,0,0,0-3,3.77,12.69,12.69,0,0,0-.34,6.73s-3.49-6.78-1.52-10.08C471.27,200.53,474,203.61,474,203.61Z"/><path class="cls-10" d="M468.06,242.37c.32,21.18.09,16.75,2.4,18.76.56.49,2.13.78,4.19.91,6.5.43,17.91-.64,18.35-1.84,1.5-4.15.44-5.44,1.69-11.8.13-.67.29-1.4.48-2.2,1-4.37,2.05-5.85-1.64-12.87-3.35-6.35-6.84-11.51-7.15-11.32-8.84,5.25-9.56.84-9.56.84S467.9,232,468.06,242.37Z"/><path class="cls-11" d="M445.39,297l6.8,18.29a10.94,10.94,0,0,0,3.61-.33,15.7,15.7,0,0,0,3.5-1.7s-1.89-19.64-5.41-30.92Z"/><path class="cls-10" d="M476.82,222.84s-9.1,1.55-10.17,5.47-7.35,26.95-7.35,26.95,4.62.83,6.76-1.31,7.44-19.83,7.44-19.83Z"/><path class="cls-6" d="M474.65,262c6.5.43,17.91-.64,18.35-1.84,1.5-4.15.44-5.44,1.69-11.8l-3.13-8.82s.51,9.83-2.38,12.41-11.86,5-13.27,7.14A8,8,0,0,0,474.65,262Z"/><path class="cls-4" d="M482.09,257.91s-6.4-1.42-7.44-.86-3.56,2.64-3.87,3.36,2.3-.54,3.15-.77a7.51,7.51,0,0,1,2.72.59,9,9,0,0,0,4.88.49Z"/><path class="cls-10" d="M486.39,222s8.6.53,11.57,4.69c4.2,5.84,12.51,30.76,7.75,34.08-5.37,3.75-24.43,1-24.43,1s-.63-3,.25-4.4,15.22-3.75,15.88-4.41-8.27-12.91-8.27-14.89S486.39,222,486.39,222Z"/><path class="cls-4" d="M474.34,258.84a12.5,12.5,0,0,1-1.78,1.94,1.34,1.34,0,0,1-.72.15l.9-1.63Z"/><path class="cls-4" d="M474.65,257.05l-3.9,1.9a.71.71,0,0,0,.65.25,9,9,0,0,0,1.69-.47Z"/><polygon class="cls-17" points="472.56 263.43 441.69 263.43 432.4 240.34 463.23 240.34 472.56 263.43"/><polygon class="cls-18" points="441.33 262.53 482.1 262.53 482.1 263.43 441.69 263.43 441.33 262.53"/><path class="cls-19" d="M449.48,251.88a1.07,1.07,0,0,1,1-1.47,2.11,2.11,0,0,1,1.89,1.47,1.06,1.06,0,0,1-1,1.47A2.12,2.12,0,0,1,449.48,251.88Z"/><path class="cls-20" d="M595.62,465H4a.79.79,0,0,1-.79-.79h0a.78.78,0,0,1,.79-.78H595.62a.78.78,0,0,1,.79.78h0A.79.79,0,0,1,595.62,465Z"/></svg>